<svg width="30" height="31" viewBox="0 0 30 31" fill="none" xmlns="http://www.w3.org/2000/svg">
<circle cx="15" cy="15.6133" r="15" fill="white"/>
<path d="M21.9961 12.1048C22.6854 11.5878 23.3058 10.9674 23.7884 10.2436C23.168 10.5194 22.4442 10.7262 21.7204 10.7951C22.4786 10.347 23.0301 9.65769 23.3058 8.79602C22.6165 9.20962 21.8238 9.51982 21.031 9.69216C20.3417 8.96835 19.4111 8.55475 18.3771 8.55475C16.378 8.55475 14.758 10.1747 14.758 12.1738C14.758 12.4495 14.7925 12.7252 14.8614 13.001C11.8628 12.8286 9.1744 11.381 7.38212 9.20962C7.07192 9.72662 6.89959 10.347 6.89959 11.0364C6.89959 12.2772 7.51999 13.3801 8.51953 14.035C7.93359 14.0005 7.34766 13.8627 6.86512 13.5869V13.6214C6.86512 15.3792 8.10593 16.8268 9.76034 17.1715C9.48461 17.2404 9.13994 17.3093 8.82973 17.3093C8.58847 17.3093 8.38166 17.2749 8.1404 17.2404C8.58847 18.688 9.93267 19.722 11.5182 19.7565C10.2773 20.7216 8.72633 21.3075 7.03745 21.3075C6.72725 21.3075 6.45152 21.273 6.17578 21.2386C7.76126 22.2726 9.65694 22.8585 11.725 22.8585C18.3771 22.8585 21.9961 17.3783 21.9961 12.5874C21.9961 12.415 21.9961 12.2772 21.9961 12.1048Z" fill="black"/>
</svg>
